<svg xmlns="http://www.w3.org/2000/svg">
    <symbol id="exc-pennant-frame-left" viewBox="0 0 250 24">
        <path fill="orange" d="M 250 0 h -250 l 12 12 l -12 12 h 250 z"/>
    </symbol>
    <symbol id="exc-pennant-flag-left" viewBox="0 0 250 24">
        <path fill="red" d="M 250 2 h -245 l 10 10 l -10 10 h 245 z"/>
    </symbol>
    <symbol id="exc-pennant-frame-right" viewBox="0 0 250 24">
        <path fill="orange" d="M 0 0 h 250 l -12 12 l 12 12 h -250 z"/>
    </symbol>
    <symbol id="exc-pennant-flag-right" viewBox="0 0 250 24">
        <path fill="red" d="M 0 2 h 245 l -10 10 l 10 10 h -245 z"/>
    </symbol>
    <symbol id="hero-doll-body" viewBox="0 0 282 334">
        <path d="M 170.37975,325.95359 c 0.94354,-0.94355 1.64604,-6.86042 2.04292,-17.20665 0.21619,-5.63582 0.70288,-11.4628 1.08154,-12.94885 0.41682,-1.63583 0.0278,-4.69092 -0.98589,-7.74293 -1.20438,-3.62605 -1.50905,-6.79731 -1.08545,-11.29808 0.92208,-9.79707 1.66004,-15.09839 2.23014,-16.02084 0.28853,-0.46685 0.68929,-4.91815 0.89058,-9.89178 0.28724,-7.09756 0.83899,-9.82835 2.5647,-12.69371 1.71622,-2.84959 2.26124,-5.51608 2.48358,-12.15075 0.15667,-4.675 0.76034,-10.07203 1.34149,-11.9934 0.58115,-1.92137 1.0544,-4.39637 1.05167,-5.5 -0.004,-1.75039 -0.3029,-1.63425 -2.33832,0.90951 -1.43276,1.79061 -2.59185,2.49785 -3.00311,1.83242 -0.71289,-1.15348 0.45352,-10.78685 2.84393,-23.48815 0.80114,-4.25679 1.18021,-9.12168 0.84237,-10.81087 -0.50976,-2.54879 -0.0687,-3.63409 2.5927,-6.37997 2.87869,-2.97006 3.1337,-3.70593 2.49127,-7.18914 -0.39363,-2.13422 -1.37563,-5.6804 -2.18223,-7.8804 -0.80661,-2.2 -2.03317,-6.57794 -2.7257,-9.72876 -1.10715,-5.03719 -1.03322,-6.54355 0.61245,-12.47835 1.02939,-3.71228 1.87161,-8.39174 1.87161,-10.3988 0,-3.60701 2.06577,-6.58951 3.81521,-5.5083 0.49655,0.30689 1.19975,3.08439 1.56266,6.17222 0.36292,3.08784 1.32636,6.90314 2.14099,8.47846 0.81463,1.57531 1.48114,4.8566 1.48114,7.29175 0,2.43514 0.71268,6.13321 1.58373,8.21793 0.87105,2.08473 1.69224,5.93611 1.82486,8.55863 0.13261,2.62252 0.79061,5.43032 1.46221,6.23955 2.65592,3.20018 0.31645,14.36626 -3.78825,18.08096 -3.13606,2.83809 -2.84848,8.82707 0.55231,11.50213 2.97088,2.3369 6.42756,2.58926 12.95443,0.94578 6.032,-1.51887 7.39538,-3.6359 6.21683,-9.65334 -1.30686,-6.67257 -0.37653,-14.19678 5.07709,-41.06186 0.48479,-2.3881 0.64981,-5.22772 0.36672,-6.31026 -0.4872,-1.86305 -0.66127,-1.82783 -3.25701,0.65904 l -2.7423,2.62729 -2.22283,-2.81703 c -1.78022,-2.25611 -2.12435,-3.69854 -1.72821,-7.24397 0.38799,-3.47246 0.001,-5.19729 -1.79262,-8 -2.57311,-4.01963 -9.18218,-32.820261 -7.82893,-34.116428 0.45209,-0.433009 1.94697,-0.937894 3.32197,-1.121966 1.375,-0.184072 2.5,-0.746671 2.5,-1.250221 0,-1.220386 -11.20933,-10.239797 -15,-12.069516 -1.65,-0.796438 -5.65016,-2.016092 -8.88925,-2.710342 -7.01394,-1.503333 -9.67693,-4.384293 -10.11672,-10.944761 -0.16075,-2.39791 -0.71295,-6.674799 -1.22711,-9.504198 -0.55235,-3.039585 -0.58237,-7.949295 -0.0734,-12 1.68115,-13.378584 -2.21586,-21.777166 -12.80428,-27.5949775 -2.90793,-1.5977624 -3.39688,-1.6014784 -7.5,-0.057 -5.49918,2.0699715 -8.36619,4.5832525 -11.70537,10.2611805 -2.48005,4.21707 -2.61098,5.104969 -2.35934,16 0.19448,8.420276 -0.15091,12.716753 -1.27907,15.910886 -1.93023,5.465006 -1.95135,8.018335 -0.0834,10.082409 0.84826,0.937309 1.21913,2.544785 0.88337,3.82874 C 133.90106,67.486363 133.02792,68 130.58337,68 c -1.75085,0 -3.68452,-0.501147 -4.29703,-1.11366 -0.69018,-0.690185 -3.90334,-0.971685 -8.45,-0.740294 -6.93707,0.353046 -7.86668,0.699378 -17.08115,6.36366 -6.317929,3.883737 -9.746631,6.605702 -9.749997,7.740294 -0.0042,1.403183 -0.885313,1.75 -4.446176,1.75 -2.442541,0 -4.756931,0.511214 -5.143089,1.136032 -0.478562,0.774329 -1.213734,0.515143 -2.309017,-0.814048 C 77.006245,79.772702 71.373952,77.609891 61.5,75.560896 57.1,74.64783 52.501603,73.693067 51.281341,73.439202 c -1.220262,-0.253866 -4.145262,-2.25093 -6.5,-4.437921 -2.354738,-2.186992 -4.970599,-3.981958 -5.813026,-3.988815 -0.948779,-0.0077 -2.040526,-1.735807 -2.868753,-4.540837 C 34.489954,55.020226 32.833388,54 25.591422,54 c -5.041374,0 -5.664697,0.247541 -6.924672,2.75 -2.002551,3.977301 -2.728606,10.042028 -1.504499,12.567052 0.58205,1.200621 4.052155,3.657675 7.711345,5.460119 3.65919,1.802444 9.572072,5.521185 13.139738,8.263869 12.327255,9.476716 17.654924,12.709136 28.611712,17.35939 7.183325,3.04872 7.794021,3.13402 6.96469,0.97282 -0.810868,-2.113086 1.283436,-4.720895 2.792943,-3.477746 C 76.997205,98.401595 80.425,99.011352 84,99.25052 c 14.381436,0.96212 29.07887,5.97757 31.43592,10.72741 1.60766,3.23969 6.21577,17.91102 7.85917,25.02207 1.24821,5.40103 1.2044,5.65295 -2.4347,14 -2.03818,4.675 -4.00792,10.14629 -4.3772,12.15843 -0.59179,3.22455 -0.31523,3.9758 2.33187,6.33438 2.3008,2.05002 3.11591,3.76726 3.48473,7.34156 0.26479,2.5661 1.26362,9.24158 2.21962,14.8344 0.9845,5.75954 1.42824,11.3964 1.02337,13 l -0.71481,2.83123 -1.654,-3 -1.654,-3 -0.31014,2.58146 c -0.17058,1.4198 1.04316,6.8198 2.69721,12 1.65405,5.1802 3.27408,11.44354 3.60007,13.91854 0.78666,5.97254 2.61303,12 3.6361,12 1.16328,0 5.46739,8.81868 6.34487,13 0.40398,1.925 1.30438,4.175 2.00089,5 0.6965,0.825 1.57633,3.75 1.95517,6.5 0.37884,2.75 1.58332,8.76257 2.67662,13.36126 2.43688,10.25007 2.47658,10.18828 -9.97542,15.52156 C 125.07423,297.26803 118,302.1007 118,304.41229 c 0,1.86853 4.12718,3.35132 7,2.51493 1.375,-0.40033 4.39054,-0.77272 6.70121,-0.82754 2.31067,-0.0548 6.79271,-0.77468 9.9601,-1.59968 6.36039,-1.65667 11.94243,-1.95018 12.73389,-0.66957 0.28228,0.45674 -0.13582,3.26924 -0.92911,6.25 -1.95803,7.35721 -1.85834,12.82865 0.27672,15.18787 1.48153,1.63707 2.82069,1.87135 8.9327,1.5627 3.95444,-0.19969 7.42135,-0.59452 7.70424,-0.87741 z"/>
    </symbol>
    <symbol id="hero-doll-left-cloak" viewBox="0 0 282 334">
        <path d="M 143.95762,287.55106 c 0.94719,-1.14128 0.78079,-3.10532 -0.78366,-9.25 -1.0924,-4.29058 -2.30192,-10.27606 -2.68784,-13.30106 -0.38591,-3.025 -1.26772,-6.175 -1.95958,-7 -0.69186,-0.825 -1.57973,-2.85 -1.97306,-4.5 -1.10265,-4.62561 -4.69424,-12.5 -5.70137,-12.5 -1.2628,0 -2.98624,-4.59796 -3.93569,-10.5 -1.1914,-7.4061 -1.62221,-9.10976 -4.45353,-17.61142 -1.62271,-4.87258 -2.46861,-9.36486 -2.27354,-12.0741 L 120.5,196.5 l 2.23315,3.5 c 2.11507,3.31492 2.2331,3.3678 2.23207,1 -6e-4,-1.375 -0.7195,-6.775 -1.59755,-12 -0.87806,-5.225 -1.81439,-11.525 -2.08075,-14 -0.35987,-3.34385 -1.25643,-5.21647 -3.48964,-7.28865 -2.65508,-2.46364 -2.92535,-3.22122 -2.31885,-6.5 0.37757,-2.04124 2.27075,-7.31135 4.20706,-11.71135 3.49727,-7.94709 3.5126,-8.04499 2.31738,-14.80224 -1.32865,-7.51162 -6.4314,-23.30426 -8.2301,-25.47156 C 112.20178,107.33328 103,102.75051 103,103.86103 c 0,0.4921 0.62503,2.41218 1.38895,4.26685 0.76392,1.85466 1.70228,6.92466 2.08525,11.26665 0.38297,4.34199 0.93729,8.84199 1.23184,10 0.29455,1.15801 0.36868,17.40547 0.16475,36.10547 -0.20393,18.7 -0.37079,48.85 -0.37079,67 v 33 l 2.44638,4.27177 c 3.69218,6.44714 14.11008,12.54584 15.33677,8.97823 0.23639,-0.6875 0.31152,-0.4625 0.16695,0.5 -0.14458,0.9625 0.14501,1.75 0.64352,1.75 0.49851,0 0.90638,0.60526 0.90638,1.34501 0,4.63582 13.89146,8.90055 16.95762,5.20605 z"/>
    </symbol>
    <symbol id="hero-doll-right-cloak" viewBox="0 0 282 334">
        <path d="M 191.07961,282.61526 c 4.35034,-1.82262 5.93631,-3.61999 6.94559,-7.87142 0.7361,-3.10071 0.77459,-3.12314 0.87244,-0.50829 0.0974,2.60217 0.30959,2.716 4.35236,2.33455 10.35348,-0.97689 15.70994,-3.19301 15.866,-6.56421 0.0785,-1.6951 0.26397,-1.93967 0.57333,-0.75589 0.52247,1.99929 1.9962,2.11924 8.2713,0.67319 5.881,-1.35523 7.30153,-2.56483 5.9587,-5.07393 -0.93327,-1.74382 -0.84274,-1.81838 0.89222,-0.73488 3.76307,2.35008 16.45806,-4.86749 19.74649,-11.22661 1.43404,-2.77313 1.34524,-3.13504 -2.08501,-8.49739 C 246.33469,234.79462 233.05856,207.92583 229.79815,198.5 228.08593,193.55 225.80913,187.475 224.73859,185 221.65714,177.87593 217,162.91079 217,160.13302 c 0,-5.30694 -1.77098,-0.31182 -2.96644,8.36698 -0.93674,6.80053 -0.96768,10.46341 -0.12657,14.98811 1.05906,5.69719 1.00334,6.07096 -1.14692,7.69368 -2.5862,1.9517 -9.24727,3.81821 -13.62616,3.81821 -1.74749,0 -4.25325,-1.07099 -6.05718,-2.58889 C 190.50424,190.2465 190,189.10505 190,185.44629 c 0,-3.38656 0.46301,-4.62372 2.04787,-5.47191 2.51812,-1.34766 4.01303,-4.97391 4.64485,-11.26715 0.30594,-3.04734 0.0215,-5.3466 -0.78092,-6.3135 -0.69415,-0.8364 -1.3706,-3.66643 -1.50321,-6.28895 -0.13262,-2.62252 -0.95381,-6.4739 -1.82486,-8.55863 C 191.71268,145.46143 191,141.76336 191,139.32822 c 0,-2.43515 -0.66651,-5.71644 -1.48114,-7.29175 -0.81463,-1.57532 -1.77849,-5.39418 -2.14192,-8.48637 -0.8318,-7.07733 -2.6576,-6.8004 -3.49868,0.53067 -0.34196,2.98058 -1.27122,7.89423 -2.06504,10.91923 -1.53869,5.8635 -0.84874,11.66504 2.43953,20.51321 0.82029,2.20727 1.7958,5.81469 2.16779,8.01649 0.60083,3.55625 0.35236,4.31369 -2.22503,6.78299 -2.6314,2.52104 -2.90324,3.40354 -2.92127,9.48351 -0.0109,3.68709 -0.51323,8.5038 -1.11623,10.7038 -0.60299,2.2 -1.34951,6.7 -1.65894,10 -0.30942,3.3 -0.80362,6.7875 -1.09822,7.75 -0.8085,2.64153 1.07492,2.09806 2.59915,-0.75 0.73588,-1.375 1.71192,-2.5 2.16898,-2.5 1.15839,0 1.03738,4.83096 -0.22562,9.0066 -0.58115,1.92137 -1.18482,7.3184 -1.34149,11.9934 -0.2202,6.57072 -0.77273,9.30968 -2.43431,12.06725 -1.56307,2.59406 -2.17661,5.3222 -2.24898,10 -0.0547,3.53801 -0.7072,10.25775 -1.44993,14.93275 -2.71575,17.09377 -2.85413,20.7584 -0.80637,21.35474 3.09116,0.9002 13.6287,-0.15219 17.41733,-1.73948 z"/>
    </symbol>
    <symbol id="hero-doll-medallion" viewBox="0 0 282 334">
        <line x1="135" y1="67" x2="149" y2="81" stroke="#F7DE7B"/>
        <circle cx="152" cy="84" r="4" stroke="#F7DE7B"/>
        <line x1="155" y1="81" x2="172" y2="64" stroke="#F7DE7B"/>
    </symbol>
</svg>
